# xmcd CD database file
#
# Track frame offsets:
#	150
#	16280
#	37797
#	54607
#	71857
#	88897
#	105227
#	135497
#	153195
#	174725
#	193927
#	208577
#	220865
#	235117
#	250900
#
# Disc length: 3559 seconds
#
# Revision: 0
# Processed by: cddbd v1.5.1PL0 Copyright (c) Steve Scherf et al.
# Submitted via: CDex 1.51
#
DISCID=cc0de50f
DTITLE=Various Artist - Amazing Grace 100%
DYEAR=2004
DGENRE=General Pop
TTITLE0=Amazing Grace (Emiko Shiratori)
TTITLE1=Amazing Grace (John Doan)
TTITLE2=Amazing Grace (Robson and Jerome)
TTITLE3=Amazing Grace (Hajime Mizoguchi)
TTITLE4=Amazing Grace (Shigeko Suzuki)
TTITLE5=Amazing Grace (Richard Stoltzman)
TTITLE6=Amazing Grace (Lisbeth Scott)
TTITLE7=Amazing Grace (Ryoko Moriyama)
TTITLE8=Amazing Grace (James Galway)
TTITLE9=Amazing Grace (Lesley Garrett)
TTITLE10=Amazing Grace (THE Canadian Brass)
TTITLE11=Amazing Grace (Leontyne Price)
TTITLE12=Amazing Grace (Harry Allen)
TTITLE13=Amazing Grace (Isato Nakagawa)
TTITLE14=Amazing Grace (Elvis Presley)
EXTD=YEAR: 2004
EXTT0=
EXTT1=
EXTT2=
EXTT3=
EXTT4=
EXTT5=
EXTT6=
EXTT7=
EXTT8=
EXTT9=
EXTT10=
EXTT11=
EXTT12=
EXTT13=
EXTT14=
PLAYORDER=
